<?xml version="1.0" standalone="no"?>
<!DOCTYPE svg PUBLIC "-//W3C//DTD SVG 20010904//EN"
 "http://www.w3.org/TR/2001/REC-SVG-20010904/DTD/svg10.dtd">
<svg version="1.0" xmlns="http://www.w3.org/2000/svg"
 width="1280.000000pt" height="1280.000000pt" viewBox="0 0 1280.000000 1280.000000"
 preserveAspectRatio="xMidYMid meet">
<metadata>
Created by potrace 1.15, written by Peter Selinger 2001-2017
</metadata>
<g transform="translate(0.000000,1280.000000) scale(0.100000,-0.100000)"
fill="#fcfcfc" stroke="none">
<path d="M6175 12263 c-1772 -71 -3405 -928 -4472 -2348 -361 -480 -664 -1054
-858 -1627 -414 -1216 -414 -2559 -1 -3773 552 -1625 1786 -2924 3386 -3567
741 -297 1621 -447 2408 -409 1117 53 2112 377 3022 984 1162 775 2028 1973
2394 3310 146 535 209 1008 209 1567 0 312 -8 450 -44 740 -208 1676 -1147
3194 -2559 4137 -314 210 -731 432 -1057 562 -775 310 -1615 457 -2428 424z
m295 -578 c11 -25 31 -84 46 -130 l26 -85 49 0 c39 0 49 -3 49 -16 0 -13 -7
-15 -31 -10 -17 3 -44 6 -60 6 -24 0 -29 4 -29 23 0 29 -26 117 -52 180 -20
47 -21 47 -68 47 -47 0 -48 0 -68 -47 -26 -63 -52 -151 -52 -180 0 -19 -5 -23
-29 -23 -16 0 -43 -3 -60 -6 -24 -5 -31 -3 -31 10 0 13 10 16 49 16 l49 0 26
85 c15 46 35 105 46 130 19 45 19 45 70 45 51 0 51 0 70 -45z m-432 22 c6 -7
16 -26 22 -42 11 -28 10 -28 -7 -13 -15 13 -26 15 -57 8 -21 -5 -42 -12 -46
-17 -13 -13 -30 -121 -30 -188 l0 -62 -41 -12 c-23 -7 -47 -15 -55 -18 -8 -3
-21 9 -33 28 -23 38 -16 49 36 49 35 0 35 0 53 90 6 30 19 82 29 115 16 52 23
61 47 66 48 11 71 10 82 -4z m806 4 c24 -5 31 -14 47 -66 10 -33 23 -85 29
-115 18 -90 18 -90 53 -90 52 0 59 -11 36 -49 -12 -19 -25 -31 -33 -28 -8 3
-32 11 -55 18 l-41 12 0 62 c0 67 -17 175 -30 188 -4 5 -25 12 -46 17 -31 7
-42 5 -57 -8 -17 -15 -18 -15 -7 13 21 56 34 62 104 46z m-1184 -109 c47 -81
52 -107 12 -69 l-28 27 -43 -17 -43 -18 6 -105 c3 -58 8 -117 12 -132 5 -24 2
-29 -44 -52 l-49 -25 -34 36 c-55 57 -156 125 -176 119 -10 -3 -30 -16 -44
-28 l-27 -23 14 -68 c8 -38 25 -92 38 -121 l23 -53 -45 -36 -45 -37 -33 25
c-35 27 -171 95 -189 95 -6 0 -25 -15 -42 -32 l-32 -33 28 -66 c15 -36 42 -87
60 -113 36 -51 36 -48 -18 -116 l-19 -24 -49 22 c-49 23 -154 52 -185 52 -9 0
-29 -17 -42 -37 l-25 -37 22 -39 c12 -22 48 -68 80 -103 l58 -63 -26 -51 c-20
-40 -30 -50 -43 -45 -27 11 -132 25 -189 25 l-51 0 -18 -46 -17 -45 49 -50
c27 -28 70 -64 97 -81 52 -33 52 -34 33 -97 l-13 -44 -74 -2 c-41 -1 -99 -8
-131 -15 -50 -11 -57 -16 -62 -43 -12 -59 -8 -66 56 -108 34 -22 84 -47 110
-57 l48 -17 0 -50 c0 -27 -4 -55 -8 -61 -4 -6 -28 -14 -54 -17 -26 -4 -80 -19
-120 -34 l-73 -28 -3 -47 c-3 -39 0 -49 19 -58 38 -21 162 -60 189 -60 38 0
50 -18 50 -75 l0 -50 -48 -17 c-71 -26 -172 -94 -172 -117 0 -10 3 -32 6 -49
6 -28 11 -32 63 -43 31 -6 89 -12 130 -13 l74 -2 13 -44 c19 -64 19 -65 -33
-98 -27 -17 -70 -53 -97 -81 l-49 -50 17 -45 18 -46 62 0 c61 0 143 12 178 25
13 5 23 -5 43 -45 l26 -51 -58 -63 c-32 -35 -68 -81 -80 -103 l-22 -39 25 -37
c13 -20 31 -37 39 -37 34 0 125 24 177 47 l57 25 28 -32 c46 -54 46 -57 12
-107 -18 -25 -45 -76 -60 -112 l-28 -66 32 -32 c17 -18 36 -33 42 -33 17 0
157 70 191 95 l30 23 46 -35 46 -36 -24 -53 c-13 -29 -30 -83 -38 -121 l-14
-68 31 -27 c17 -16 38 -28 45 -28 19 0 128 79 171 124 l34 35 49 -27 c43 -24
48 -30 43 -52 -4 -14 -9 -73 -12 -131 l-5 -105 43 -17 43 -17 49 47 c27 27 65
72 84 101 21 32 40 52 48 48 7 -2 31 -10 54 -17 l41 -12 0 -60 c0 -76 18 -183
33 -195 7 -5 28 -12 48 -16 32 -6 40 -3 59 21 l21 28 -6 -35 c-17 -95 -17
-130 -1 -176 9 -26 14 -50 11 -52 -2 -3 -31 -16 -62 -29 -32 -13 -63 -27 -70
-29 -7 -3 -21 12 -32 34 -23 46 -89 107 -153 141 l-44 24 -43 -28 c-41 -27
-42 -30 -36 -69 15 -95 35 -146 87 -218 10 -14 5 -25 -37 -71 -28 -30 -53 -55
-57 -56 -4 -1 -28 14 -53 33 -41 32 -147 66 -204 66 -20 0 -71 -57 -71 -79 0
-46 87 -155 155 -196 l44 -25 -23 -53 c-13 -28 -26 -60 -30 -71 -5 -14 -12
-17 -34 -12 -67 16 -115 18 -176 6 -80 -15 -95 -25 -106 -75 -8 -36 -6 -43 18
-68 39 -41 157 -97 204 -97 l39 0 -3 -82 -3 -83 -45 -5 c-58 -7 -129 -42 -179
-88 l-39 -37 11 -45 c12 -45 12 -45 77 -62 82 -21 126 -22 180 -3 24 8 45 13
48 10 3 -2 16 -31 29 -62 13 -32 27 -63 29 -70 3 -7 -12 -21 -34 -32 -46 -23
-109 -92 -142 -154 l-23 -43 28 -42 c15 -23 35 -42 44 -43 9 0 -11 -7 -44 -14
-68 -14 -74 -12 -100 45 l-18 40 44 47 c25 27 60 70 78 96 35 52 36 74 2 114
-18 21 -22 22 -77 12 -33 -6 -88 -22 -123 -36 l-65 -26 -33 39 c-18 21 -33 42
-33 46 0 4 16 33 35 63 20 30 45 80 57 111 l21 55 -34 34 -34 34 -59 -24 c-32
-13 -83 -40 -113 -60 l-54 -36 -44 36 -43 36 18 43 c24 52 50 151 50 186 0 36
-61 75 -93 59 -38 -21 -135 -98 -157 -126 l-21 -27 -47 26 c-46 27 -47 28 -42
70 2 24 4 83 5 132 l0 89 -43 16 -42 15 -43 -42 c-24 -23 -59 -67 -78 -97 -32
-52 -36 -55 -68 -49 -77 13 -81 17 -81 91 0 60 -20 176 -32 188 -3 3 -24 8
-49 11 l-44 6 -35 -54 c-19 -29 -44 -78 -56 -108 -25 -59 -42 -68 -109 -56
-29 6 -32 10 -42 64 -6 33 -22 85 -35 118 -26 66 -56 86 -105 68 -24 -8 -33
-23 -60 -104 -18 -52 -33 -105 -33 -116 0 -24 -24 -34 -80 -34 -34 1 -36 3
-77 88 -62 128 -70 136 -126 128 -43 -7 -47 -10 -57 -44 -6 -20 -13 -79 -17
-130 -7 -102 -5 -100 -80 -116 -30 -7 -34 -4 -59 36 -35 54 -123 148 -140 148
-7 0 -29 -8 -49 -17 l-35 -17 0 -70 c0 -66 7 -109 24 -162 5 -17 -2 -25 -44
-48 l-51 -28 -60 56 c-33 31 -80 67 -104 82 l-45 26 -35 -26 c-20 -16 -35 -36
-35 -48 0 -33 30 -139 51 -180 10 -20 19 -39 19 -42 0 -3 -20 -21 -45 -42
l-45 -36 -32 24 c-39 29 -106 65 -158 83 -37 13 -39 12 -70 -20 -25 -26 -30
-38 -25 -56 11 -36 55 -119 86 -165 l28 -41 -38 -43 -37 -43 -64 26 c-36 14
-91 30 -123 37 -53 11 -60 10 -72 -7 -38 -51 -39 -59 -11 -107 15 -25 51 -71
80 -101 l54 -55 -27 -50 c-21 -41 -30 -50 -46 -45 -43 13 -158 26 -197 23 -38
-3 -43 -6 -59 -46 l-18 -42 31 -36 c25 -28 78 -70 166 -130 2 -1 -4 -27 -14
-57 l-17 -55 -76 -1 c-101 -1 -179 -17 -185 -39 -20 -71 -19 -75 31 -109 27
-18 79 -46 116 -63 l68 -31 -6 -47 c-9 -69 -9 -69 -63 -75 -28 -3 -81 -19
-119 -34 l-68 -28 -3 -48 -3 -48 53 -23 c54 -23 124 -43 168 -48 22 -3 26 -9
32 -53 10 -64 7 -71 -39 -85 -21 -7 -71 -32 -111 -57 -70 -43 -73 -46 -67 -77
12 -60 15 -64 53 -71 36 -7 36 -8 12 -17 -13 -5 -51 -8 -84 -6 -59 3 -62 4
-78 38 -9 19 -17 43 -18 52 0 14 87 97 174 165 l29 23 -20 52 -20 53 -139 5
-139 5 -14 41 c-8 22 -12 48 -8 57 5 14 114 100 187 148 23 15 24 16 9 70
l-14 54 -135 13 c-82 7 -137 17 -141 24 -5 7 -11 30 -15 51 -8 49 0 57 126
134 l96 58 -11 55 -10 54 -114 19 c-156 25 -158 26 -167 83 -8 57 -3 63 138
131 l98 48 -6 55 c-4 30 -8 56 -9 58 -2 2 -41 12 -87 22 -163 37 -172 42 -181
89 -5 24 -6 49 -3 57 5 14 96 59 194 96 l52 19 0 59 0 58 -85 26 c-46 15 -105
35 -130 46 -45 19 -45 19 -45 70 0 51 0 51 45 70 25 11 84 31 130 46 l85 26 0
58 0 59 -52 19 c-98 37 -189 82 -194 96 -3 8 -2 33 3 57 9 47 18 52 181 89 46
10 85 20 87 22 1 2 5 28 9 58 l6 55 -98 48 c-141 68 -146 74 -138 131 9 57 11
58 167 83 l114 19 10 54 11 55 -96 58 c-126 77 -134 85 -126 134 4 21 10 44
15 51 4 7 59 17 141 24 l135 13 14 54 c15 54 14 55 -9 70 -73 48 -182 134
-187 148 -4 9 0 35 8 57 l14 41 139 5 139 5 20 53 20 52 -29 23 c-87 68 -174
151 -174 165 1 9 9 33 18 52 l17 35 70 0 c39 0 101 -2 139 -5 l68 -5 23 51 23
51 -94 94 c-52 51 -94 98 -94 104 0 5 10 28 23 50 22 38 23 39 72 36 28 -1 88
-9 134 -17 46 -8 87 -11 91 -7 4 4 17 27 30 49 l23 42 -64 73 c-36 41 -75 89
-88 107 l-23 32 27 46 c25 43 28 44 63 38 51 -8 193 -41 214 -49 21 -8 86 81
72 101 -5 6 -40 57 -78 113 l-69 100 27 42 c26 39 30 41 65 35 21 -3 82 -20
136 -37 l97 -32 34 39 c18 21 33 42 34 46 0 4 -20 38 -44 75 -51 80 -86 147
-86 165 1 7 14 28 30 47 l29 34 74 -26 c41 -15 99 -38 128 -52 l54 -25 40 40
39 39 -57 118 c-31 65 -57 122 -57 128 0 13 62 75 74 75 6 0 64 -26 129 -57
l118 -57 39 39 40 40 -25 54 c-14 29 -37 87 -52 128 l-26 74 34 29 c19 16 40
29 47 30 18 0 85 -35 165 -86 37 -24 71 -44 75 -44 4 1 25 16 46 34 l39 34
-32 97 c-17 54 -34 115 -37 136 -6 35 -4 39 35 65 l42 27 100 -69 c56 -38 107
-73 113 -78 20 -14 109 51 101 72 -8 21 -41 163 -49 214 -6 35 -5 38 38 63
l46 27 32 -23 c18 -13 66 -52 107 -88 l73 -64 42 23 c22 13 45 26 49 30 4 4 1
47 -7 96 -8 49 -16 109 -18 134 -2 43 -1 46 37 67 22 13 45 23 50 23 6 0 53
-42 105 -94 l95 -93 52 23 52 23 -7 68 c-4 37 -7 99 -7 138 l0 70 35 17 c19 9
43 17 52 18 14 0 97 -87 165 -174 l23 -29 52 20 53 20 5 139 5 139 41 14 c22
8 48 12 57 8 14 -5 100 -114 148 -187 15 -23 16 -24 70 -9 l54 14 6 75 c4 41
10 103 14 137 7 61 8 63 43 73 73 20 79 14 169 -136 l48 -80 55 11 54 10 18
110 c23 141 29 158 59 166 65 18 76 13 119 -59z m1590 62 c39 -8 43 -19 67
-165 l19 -113 55 -11 55 -11 48 82 c27 46 61 97 75 115 24 29 30 31 67 25 21
-4 45 -10 52 -15 7 -4 17 -59 24 -141 l13 -135 54 -14 c54 -15 55 -14 70 9 48
73 134 182 148 187 9 4 35 0 57 -8 l41 -14 5 -139 5 -138 53 -20 53 -20 22 29
c68 86 151 173 165 173 9 -1 33 -9 52 -18 l35 -18 -2 -99 c-1 -55 -4 -117 -7
-138 -6 -37 -6 -37 46 -61 l53 -23 95 93 c52 52 99 94 105 94 5 0 28 -10 50
-23 38 -21 39 -24 37 -67 -2 -25 -10 -85 -18 -134 -8 -49 -11 -92 -7 -96 4 -4
27 -17 49 -30 l42 -23 73 64 c41 36 89 75 107 88 l32 23 46 -27 c43 -25 44
-28 38 -63 -8 -51 -41 -193 -49 -214 -8 -21 81 -86 101 -72 6 5 57 40 113 78
l100 69 42 -27 c39 -26 41 -30 35 -66 -3 -21 -20 -80 -36 -131 -17 -51 -29
-98 -26 -104 2 -6 22 -23 44 -38 l40 -28 68 44 c81 52 148 87 166 87 7 -1 28
-14 47 -30 l34 -29 -26 -74 c-15 -41 -38 -99 -52 -128 l-25 -54 40 -40 39 -39
118 57 c65 31 122 57 128 57 13 0 75 -62 75 -74 0 -6 -26 -64 -57 -129 l-57
-118 39 -39 40 -40 54 25 c29 14 87 37 128 52 l74 26 29 -34 c16 -19 29 -40
30 -47 0 -18 -35 -85 -87 -166 l-44 -68 28 -40 c15 -22 32 -42 38 -44 6 -3 53
9 104 26 51 16 110 33 131 36 36 6 40 4 66 -35 l27 -42 -69 -100 c-38 -56 -73
-107 -78 -113 -14 -20 51 -109 72 -101 21 8 163 41 214 49 35 6 38 5 63 -38
l27 -46 -23 -32 c-13 -18 -52 -66 -88 -107 l-64 -73 23 -42 c13 -22 26 -45 30
-49 4 -4 47 -1 96 7 49 8 109 16 134 18 43 2 46 1 67 -37 13 -22 23 -45 23
-50 0 -6 -42 -53 -94 -105 l-93 -95 23 -53 c24 -52 24 -52 61 -46 21 3 83 6
138 7 l99 2 18 -35 c9 -19 17 -42 18 -52 0 -14 -120 -129 -180 -171 l-23 -16
20 -53 20 -53 139 -5 139 -5 14 -41 c8 -22 12 -48 8 -57 -5 -14 -114 -100
-187 -148 -23 -15 -24 -16 -9 -70 l14 -54 135 -13 c82 -7 137 -17 141 -24 5
-7 11 -31 15 -52 6 -37 4 -43 -25 -67 -18 -14 -69 -48 -115 -75 l-82 -48 11
-55 11 -55 113 -19 c156 -25 158 -26 167 -83 8 -57 3 -63 -138 -131 l-98 -48
6 -55 c4 -30 8 -56 9 -58 2 -2 41 -12 87 -22 166 -37 171 -40 181 -89 5 -23 6
-49 3 -57 -6 -15 -93 -58 -193 -96 l-53 -19 0 -59 0 -58 85 -26 c46 -15 105
-35 130 -46 45 -19 45 -19 45 -70 0 -51 0 -51 -45 -70 -25 -11 -84 -31 -130
-46 l-85 -26 0 -58 0 -59 53 -19 c100 -38 187 -81 193 -96 3 -8 2 -34 -3 -57
-10 -49 -15 -52 -181 -89 -46 -10 -85 -20 -87 -22 -1 -2 -5 -28 -9 -58 l-6
-55 98 -48 c141 -68 146 -74 138 -131 -9 -57 -11 -58 -167 -83 l-113 -19 -11
-55 -11 -55 82 -48 c46 -27 97 -61 115 -75 29 -24 31 -30 25 -67 -4 -21 -10
-45 -15 -52 -4 -7 -59 -17 -141 -24 l-135 -13 -14 -54 c-15 -54 -14 -55 9 -70
73 -48 182 -134 187 -148 4 -9 0 -35 -8 -57 l-14 -41 -139 -5 -139 -5 -20 -53
-20 -53 23 -16 c60 -42 180 -157 180 -171 -1 -10 -9 -33 -18 -52 -16 -34 -19
-35 -78 -38 -33 -2 -71 1 -84 6 -24 9 -24 10 12 17 38 7 41 11 53 71 6 30 3
34 -59 73 -36 22 -85 48 -108 57 -24 10 -46 20 -51 24 -4 3 -4 31 0 61 l8 54
53 7 c30 5 84 21 120 36 l67 27 3 47 c3 45 2 48 -35 66 -49 26 -139 52 -175
52 -31 0 -34 4 -43 72 l-6 47 68 31 c37 17 89 45 116 63 50 34 51 38 31 109
-6 22 -84 38 -185 39 l-76 1 -17 55 c-10 30 -16 56 -14 58 2 1 22 14 44 28 23
14 68 50 99 79 l57 53 -21 48 c-20 47 -21 47 -68 47 -48 0 -149 -14 -188 -25
-16 -5 -25 4 -46 45 l-27 50 54 55 c29 30 65 76 80 101 28 48 27 56 -11 107
-12 17 -19 18 -72 7 -32 -7 -87 -23 -123 -37 l-64 -26 -37 43 -38 43 28 41
c31 46 75 129 86 165 5 18 0 30 -25 56 -31 32 -33 33 -70 20 -52 -18 -119 -54
-158 -83 l-32 -24 -45 36 c-25 21 -45 39 -45 42 0 3 9 22 19 42 22 43 51 148
51 183 0 16 -12 31 -36 47 l-35 23 -44 -26 c-25 -14 -71 -50 -104 -81 l-60
-56 -51 29 c-35 19 -48 33 -44 43 15 41 25 114 22 175 l-3 68 -44 16 -43 16
-63 -67 c-34 -37 -68 -81 -75 -99 -12 -28 -16 -30 -48 -24 -79 15 -78 14 -85
117 -4 51 -11 110 -17 130 -10 34 -14 37 -57 44 -56 8 -64 0 -126 -128 -41
-85 -43 -87 -77 -88 -68 0 -74 5 -92 83 -24 106 -53 165 -85 173 -51 13 -75
-6 -105 -81 -14 -39 -30 -91 -33 -117 -6 -44 -9 -48 -39 -54 -68 -12 -85 -4
-110 56 -12 30 -37 79 -56 108 l-35 54 -44 -6 c-25 -3 -46 -8 -49 -11 -12 -12
-32 -128 -32 -188 0 -74 -4 -78 -81 -91 -32 -6 -36 -3 -68 49 -19 30 -54 74
-78 97 l-43 42 -42 -15 -43 -16 0 -89 c1 -49 3 -108 5 -132 5 -42 4 -43 -42
-70 l-47 -26 -21 27 c-22 28 -119 105 -157 126 -32 16 -93 -23 -93 -59 0 -35
26 -134 50 -186 l18 -43 -43 -36 -44 -36 -54 36 c-30 20 -81 47 -113 60 l-59
24 -34 -34 -34 -34 22 -57 c12 -32 39 -83 60 -114 l38 -56 -37 -43 -36 -44
-65 26 c-60 23 -178 53 -183 45 -29 -40 -46 -69 -46 -78 0 -18 85 -134 120
-163 36 -31 36 -34 8 -92 -20 -41 -25 -45 -48 -40 -52 13 -137 25 -183 25 -48
0 -48 -1 -69 -46 l-20 -46 44 -45 c32 -33 133 -110 155 -119 2 0 -5 -25 -15
-55 l-17 -54 -75 -3 c-105 -3 -178 -19 -184 -40 -21 -77 -21 -77 45 -119 34
-21 85 -47 113 -59 34 -13 51 -26 50 -37 0 -9 -1 -35 -2 -57 -1 -23 -8 -42
-14 -44 -7 -2 -39 -8 -71 -14 -32 -6 -83 -23 -113 -36 l-55 -25 3 -48 3 -48
67 -27 c36 -15 90 -31 120 -36 l53 -7 8 -54 c4 -30 4 -58 0 -61 -5 -4 -28 -15
-53 -24 -25 -10 -73 -36 -108 -58 -67 -44 -67 -44 -46 -119 6 -21 93 -39 189
-39 l72 0 16 -57 c8 -32 15 -58 14 -58 -15 -3 -123 -85 -155 -118 l-43 -44 16
-41 c14 -33 23 -43 48 -47 30 -6 167 8 212 20 17 5 25 -2 45 -44 l23 -51 -44
-47 c-51 -55 -109 -136 -109 -153 0 -7 10 -26 22 -43 12 -18 22 -33 23 -35 5
-7 152 30 197 50 l51 22 37 -44 37 -43 -37 -54 c-21 -29 -48 -80 -60 -114
l-23 -61 34 -33 34 -34 66 28 c37 16 87 43 113 61 l45 33 45 -37 45 -36 -19
-43 c-23 -51 -50 -152 -50 -184 0 -13 13 -32 35 -49 l36 -27 70 48 c38 26 83
64 100 84 l29 36 48 -25 c41 -22 47 -28 45 -55 -2 -16 -6 -75 -9 -130 l-6
-100 36 -18 c20 -9 43 -17 50 -17 18 0 111 101 139 152 19 35 25 39 52 35 17
-3 42 -10 58 -16 26 -10 27 -14 27 -78 0 -60 20 -176 32 -188 3 -3 24 -7 49
-11 l44 -5 38 60 c21 33 47 82 57 108 l18 48 58 0 58 0 12 -61 c7 -34 23 -88
36 -120 24 -59 24 -59 72 -65 27 -3 50 -1 55 5 14 19 42 99 61 171 l18 70 53
3 54 2 42 -87 c60 -125 72 -137 128 -129 41 7 45 10 55 44 6 20 13 79 17 130
7 103 9 106 88 119 27 4 32 1 47 -29 20 -42 125 -158 143 -158 8 0 30 8 50 17
l35 17 0 75 c0 42 -7 100 -14 129 l-14 53 53 26 54 27 21 -27 c22 -28 119
-105 156 -125 17 -9 28 -6 59 15 36 25 37 27 31 71 -5 41 -4 45 8 32 23 -23
106 -173 106 -190 -1 -8 -14 -30 -30 -49 l-29 -34 -74 26 c-41 15 -99 38 -128
52 l-54 25 -40 -40 -39 -39 57 -118 c31 -65 57 -122 57 -128 0 -13 -62 -75
-74 -75 -6 0 -64 26 -129 57 l-118 57 -39 -39 -40 -40 25 -54 c14 -29 37 -87
52 -128 l26 -74 -34 -29 c-19 -16 -40 -29 -47 -30 -18 0 -85 35 -166 87 l-68
44 -40 -28 c-22 -15 -42 -32 -44 -38 -3 -6 9 -53 26 -104 16 -51 33 -110 36
-131 6 -36 4 -40 -35 -66 l-42 -27 -100 69 c-56 38 -107 73 -113 78 -20 14
-109 -51 -101 -72 8 -21 41 -163 49 -214 6 -35 5 -38 -38 -63 l-46 -27 -32 23
c-18 13 -66 52 -107 88 l-73 64 -42 -23 c-22 -13 -45 -26 -49 -30 -4 -4 -1
-47 7 -96 8 -49 16 -109 18 -134 2 -43 1 -46 -37 -67 -22 -13 -45 -23 -50 -23
-6 0 -53 42 -105 94 l-95 93 -53 -23 c-52 -24 -52 -24 -46 -61 3 -21 6 -83 7
-138 l2 -99 -35 -18 c-19 -9 -43 -17 -52 -18 -14 0 -97 87 -165 173 l-22 29
-53 -20 -53 -20 -5 -138 -5 -139 -41 -14 c-22 -8 -48 -12 -57 -8 -14 5 -100
114 -148 187 -15 23 -16 24 -70 9 l-54 -14 -13 -135 c-7 -82 -17 -137 -24
-141 -7 -5 -31 -11 -52 -15 -37 -6 -43 -4 -67 25 -14 18 -48 69 -75 115 l-48
82 -55 -11 -55 -11 -19 -113 c-25 -156 -26 -158 -83 -167 -57 -8 -63 -3 -131
138 l-48 98 -55 -6 c-30 -4 -56 -8 -58 -9 -2 -2 -12 -41 -22 -87 -37 -163 -42
-172 -89 -181 -24 -5 -49 -6 -56 -3 -14 5 -64 106 -100 199 l-18 47 -57 0 -58
0 -26 -85 c-15 -46 -35 -105 -46 -130 -19 -45 -19 -45 -70 -45 -51 0 -51 0
-70 45 -11 25 -31 84 -46 130 l-26 85 -58 0 -57 0 -18 -47 c-36 -93 -86 -194
-100 -199 -7 -3 -32 -2 -56 3 -47 9 -52 18 -89 181 -10 46 -20 85 -22 87 -2 1
-28 5 -58 9 l-55 6 -48 -98 c-68 -141 -74 -146 -131 -138 -57 9 -58 11 -83
167 l-19 113 -55 11 -55 11 -48 -82 c-27 -46 -61 -97 -75 -115 -24 -29 -30
-31 -67 -25 -21 4 -45 10 -52 15 -7 4 -17 59 -24 141 l-13 135 -54 14 c-54 15
-55 14 -70 -9 -48 -73 -134 -182 -148 -187 -9 -4 -35 0 -57 8 l-41 14 -5 139
-5 139 -53 20 -52 20 -23 -29 c-68 -87 -151 -174 -165 -174 -9 1 -33 9 -52 18
l-35 17 0 70 c0 39 3 101 7 138 l7 68 -52 23 -52 23 -95 -93 c-52 -52 -99 -94
-105 -94 -5 0 -28 10 -50 23 -38 21 -39 24 -37 67 2 25 10 85 18 134 8 49 11
92 7 96 -4 4 -27 17 -49 30 l-42 23 -73 -64 c-41 -36 -89 -75 -107 -88 l-32
-23 -46 27 c-43 25 -44 28 -38 63 8 51 41 193 49 214 8 21 -81 86 -101 72 -6
-5 -57 -40 -113 -78 l-100 -69 -42 27 c-39 26 -41 30 -35 65 3 21 20 82 37
136 l32 97 -39 34 c-21 18 -42 33 -46 34 -4 0 -38 -20 -75 -44 -80 -51 -147
-86 -165 -86 -7 1 -28 14 -47 30 l-34 29 26 74 c15 41 38 99 52 128 l25 54
-40 40 -39 39 -118 -57 c-65 -31 -122 -57 -128 -57 -13 0 -75 62 -75 74 0 6
26 64 57 129 l57 118 -39 39 -40 40 -54 -25 c-29 -14 -87 -37 -128 -52 l-74
-26 -29 34 c-16 19 -29 41 -30 49 0 17 83 167 106 190 12 13 13 9 8 -32 -6
-44 -5 -46 31 -71 31 -21 42 -24 59 -15 37 20 134 97 156 125 l21 27 53 -26
54 -27 -14 -58 c-8 -32 -14 -90 -14 -130 l0 -71 47 -18 46 -18 62 67 c34 36
68 81 75 98 12 27 17 30 44 26 80 -13 82 -16 89 -119 4 -51 11 -110 17 -130
10 -34 14 -37 55 -44 56 -8 68 4 128 129 l42 87 54 -2 53 -3 18 -70 c10 -38
27 -92 38 -120 l20 -50 53 0 53 0 23 59 c14 32 30 86 37 120 l12 61 58 0 58 0
18 -48 c10 -26 36 -75 57 -108 l38 -60 44 5 c25 4 46 8 49 11 12 12 32 128 32
188 0 64 1 68 28 78 15 6 41 13 57 16 27 4 33 0 52 -35 28 -51 121 -152 139
-152 7 0 30 8 50 17 l36 18 -6 100 c-3 55 -7 114 -9 130 -2 27 4 33 45 55 l48
25 29 -36 c17 -20 62 -58 100 -84 l70 -48 36 27 c22 17 35 36 35 49 0 32 -27
133 -50 184 l-19 43 45 36 45 37 45 -33 c26 -18 76 -45 113 -61 l66 -28 34 34
34 33 -23 61 c-12 34 -39 85 -60 114 l-37 54 37 43 37 44 51 -22 c45 -20 192
-57 197 -50 1 2 11 17 23 35 12 17 22 36 22 43 0 17 -58 98 -109 153 l-44 47
23 51 c20 42 28 49 45 44 45 -12 182 -26 212 -20 25 4 34 14 48 47 l16 41 -48
49 c-36 37 -121 101 -150 113 -1 0 6 26 14 58 l16 57 72 0 c96 0 183 18 189
39 21 75 20 76 -39 116 -31 20 -82 47 -113 60 l-57 23 4 54 c2 29 5 56 7 59 2
3 26 9 53 12 27 3 80 19 118 34 l68 28 3 48 3 48 -55 25 c-30 13 -81 30 -113
36 -32 6 -64 12 -70 14 -7 2 -14 21 -15 44 -1 22 -2 48 -2 57 -1 12 14 23 46
35 26 10 77 36 113 59 63 39 66 43 60 73 -15 75 -16 76 -170 85 l-100 6 -17
54 c-10 30 -17 55 -15 55 22 9 123 86 155 119 l44 45 -20 46 -21 46 -63 1 -63
1 61 13 c68 15 117 37 151 67 12 11 26 19 31 17 6 -2 34 -26 62 -53 36 -33 50
-53 44 -61 -52 -69 -67 -101 -82 -175 l-17 -82 35 -29 c19 -16 41 -29 50 -29
47 0 174 104 202 166 14 30 19 30 93 -1 66 -27 63 -22 49 -117 -7 -51 11 -167
30 -193 6 -9 29 -20 51 -25 36 -8 43 -6 68 18 41 39 97 157 97 204 l0 39 83
-3 82 -3 5 -45 c7 -58 42 -129 88 -179 l37 -39 45 11 c45 12 45 12 62 77 21
82 22 126 3 180 -8 24 -13 45 -10 48 2 3 31 16 62 29 32 13 63 27 70 29 7 3
21 -12 32 -34 23 -46 89 -107 153 -141 l44 -24 43 28 c41 27 42 30 36 69 -15
95 -35 146 -87 218 -10 14 -5 25 37 71 28 30 53 55 57 56 4 1 28 -14 53 -33
41 -32 147 -66 204 -66 20 0 71 57 71 79 0 46 -88 157 -156 197 l-42 25 23 52
c12 29 25 60 29 71 5 14 12 17 34 12 67 -16 115 -18 176 -6 80 15 95 25 106
75 8 36 6 43 -18 68 -39 41 -157 97 -204 97 l-39 0 3 83 3 82 45 5 c58 7 129
42 179 88 l39 37 -11 45 c-12 45 -12 45 -77 62 -82 21 -126 22 -180 3 -24 -8
-45 -13 -48 -10 -3 2 -16 31 -29 62 -13 32 -27 63 -29 70 -3 7 12 21 34 32 46
23 109 92 142 154 l23 43 -28 43 c-27 41 -30 42 -69 36 -95 -15 -146 -35 -218
-87 -14 -10 -25 -5 -71 37 -30 28 -55 53 -56 57 -1 4 14 28 33 53 32 41 66
147 66 204 0 21 -57 71 -81 71 -46 0 -174 -105 -201 -166 -14 -30 -19 -30 -93
1 -66 27 -62 17 -50 125 5 35 1 78 -8 119 l-15 65 31 -37 c29 -34 35 -37 69
-31 21 4 42 12 47 18 14 17 31 122 31 191 l0 62 41 12 c23 7 47 15 54 17 8 4
27 -16 48 -48 19 -29 57 -74 84 -101 l49 -47 43 17 43 17 -5 105 c-3 59 -9
117 -12 131 -5 22 0 28 43 52 l49 27 39 -40 c44 -46 146 -119 166 -119 8 0 28
12 45 28 l31 27 -14 68 c-8 38 -25 92 -38 121 l-24 53 46 36 46 35 30 -23 c34
-25 174 -95 191 -95 6 0 25 15 42 33 l32 32 -28 66 c-15 36 -42 87 -60 112
-34 50 -34 53 12 107 l28 32 57 -25 c52 -23 143 -47 177 -47 8 0 26 17 39 37
l25 37 -22 39 c-12 22 -48 68 -80 103 l-58 63 26 51 c20 40 30 50 43 45 35
-13 117 -25 178 -25 l62 0 18 46 17 45 -49 50 c-27 28 -70 64 -96 81 -53 33
-53 34 -34 97 l13 44 74 2 c41 1 99 7 130 14 52 11 57 15 63 43 12 60 8 67
-56 108 -35 22 -84 47 -110 57 l-48 17 0 51 c0 57 12 75 50 75 30 0 139 34
183 57 25 13 28 18 25 61 l-3 47 -73 28 c-40 15 -94 30 -120 34 -26 3 -50 11
-54 17 -4 6 -8 34 -8 61 l0 50 48 17 c26 10 76 35 110 57 65 43 73 60 53 114
-12 31 -75 48 -185 52 l-79 2 -14 44 c-18 62 -18 62 35 97 26 17 69 53 96 81
l49 50 -17 45 -18 46 -51 0 c-51 0 -151 -13 -188 -25 -14 -5 -24 5 -44 45
l-26 51 58 63 c32 35 68 81 80 103 l22 39 -25 37 c-13 20 -32 37 -40 37 -27 0
-137 -31 -188 -53 l-48 -20 -20 24 c-53 67 -53 62 -13 122 20 30 47 81 60 113
l24 59 -31 33 c-18 17 -37 32 -43 32 -18 0 -154 -68 -189 -95 l-33 -25 -45 37
-45 36 23 53 c13 29 30 83 38 121 l14 68 -27 23 c-14 12 -34 25 -44 28 -20 6
-121 -63 -176 -120 l-34 -35 -49 26 c-44 24 -49 30 -43 53 4 14 9 72 12 130
l5 105 -43 18 -43 17 -28 -27 c-40 -38 -35 -12 12 69 42 71 48 74 110 62z
m-679 -275 c329 -33 626 -148 899 -347 105 -76 302 -279 383 -392 115 -162
255 -470 282 -622 6 -33 5 -38 -16 -43 -13 -3 -387 -77 -831 -165 l-807 -161
-21 21 c-13 13 -33 20 -59 20 -38 0 -39 1 -595 636 -468 533 -555 638 -545
650 24 29 175 132 274 187 221 124 427 186 730 221 67 7 209 5 306 -5z m-809
-1090 c537 -612 553 -632 554 -672 0 -23 6 -55 13 -72 11 -28 -6 -85 -257
-819 -148 -435 -274 -792 -279 -793 -32 -11 -293 124 -438 226 -109 77 -326
295 -408 411 -138 196 -246 446 -299 695 -20 97 -23 137 -23 340 0 202 3 243
23 340 51 241 166 508 299 694 65 91 237 281 253 281 5 0 257 -284 562 -631z
m2405 -426 c4 -32 8 -155 8 -273 0 -187 -3 -229 -23 -325 -36 -170 -88 -317
-163 -465 -254 -497 -697 -833 -1251 -946 -118 -24 -156 -28 -333 -28 -170 -1
-217 3 -315 22 -156 31 -230 52 -230 66 0 6 106 324 236 706 130 382 251 738
268 790 29 83 37 97 65 110 17 9 40 29 50 45 l17 30 805 161 c442 89 816 162
831 163 25 1 27 -2 35 -56z m-1753 -229 c9 -3 16 -16 16 -29 0 -25 -21 -38
-45 -29 -18 7 -20 50 -2 57 6 3 13 6 14 6 1 1 8 -2 17 -5z m-145 -1870 c3 -3
12 -35 22 -73 10 -38 27 -92 40 -120 l21 -51 48 0 c47 0 48 0 68 48 26 62 52
150 52 179 0 19 5 23 29 23 16 0 42 3 59 6 25 5 31 3 37 -17 4 -13 17 -43 28
-67 11 -23 18 -45 16 -47 -3 -2 -22 0 -44 5 -36 8 -43 6 -68 -18 -41 -39 -97
-157 -97 -204 l0 -39 -82 3 -83 3 -5 45 c-7 56 -39 124 -85 177 -33 39 -37 41
-72 33 -21 -5 -39 -7 -41 -5 -3 2 8 34 24 70 l28 65 51 -6 c27 -4 52 -8 54
-10z m380 -473 c316 -93 560 -337 652 -653 22 -77 38 -310 25 -363 -8 -33 25
-37 -401 46 -449 87 -412 77 -434 115 -11 18 -37 41 -58 51 l-38 18 -132 385
c-73 212 -129 388 -124 393 41 41 377 46 510 8z m-451 -415 c73 -212 132 -390
132 -396 0 -6 -7 -22 -16 -35 -10 -16 -15 -40 -12 -69 l3 -45 -269 -309 c-221
-253 -273 -308 -285 -300 -28 18 -114 125 -153 190 -50 83 -92 194 -113 297
-23 112 -16 311 14 426 65 244 251 473 475 585 45 22 84 40 87 40 3 0 65 -173
137 -384z m-2464 -316 c645 -47 1196 -414 1479 -985 67 -134 100 -224 137
-377 29 -120 57 -344 47 -372 -6 -14 -92 -16 -844 -16 l-839 0 -26 30 c-16 18
-36 30 -51 30 -13 0 -30 7 -37 15 -34 41 -839 1449 -833 1458 10 17 183 93
294 130 130 44 289 76 422 86 56 5 107 9 112 9 6 1 68 -3 139 -8z m5560 0
c646 -47 1199 -418 1482 -994 100 -202 170 -468 176 -669 l3 -82 -839 -3 -840
-2 -29 30 c-16 16 -39 30 -51 30 -11 0 -26 4 -32 8 -12 8 -844 1448 -844 1461
0 11 177 93 282 130 116 40 311 80 439 90 57 5 109 9 114 9 6 1 68 -3 139 -8z
m-2869 -144 c17 -12 18 -18 7 -40 -13 -29 -29 -33 -57 -12 -17 12 -18 18 -7
40 13 29 29 33 57 12z m340 -131 c401 -78 539 -105 543 -109 2 -3 -9 -42 -25
-89 -110 -318 -379 -551 -709 -613 -120 -22 -318 -15 -424 16 -131 37 -338
151 -328 181 2 4 122 146 268 313 l265 306 42 0 c30 0 50 7 70 25 15 13 35 22
43 20 8 -2 123 -25 255 -50z m-3630 -713 c407 -707 416 -724 404 -754 -10 -24
-10 -37 0 -64 12 -33 9 -38 -410 -763 l-421 -730 -27 14 c-103 53 -326 251
-441 390 -183 223 -318 518 -372 813 -30 167 -30 449 0 614 66 361 243 700
497 953 116 116 330 275 346 258 3 -5 194 -333 424 -731z m5554 6 c404 -700
419 -728 408 -757 -8 -23 -8 -39 1 -64 12 -34 11 -36 -410 -766 l-422 -731
-38 23 c-80 48 -204 146 -287 227 -280 273 -450 604 -523 1010 -19 112 -17
440 5 560 90 489 348 892 752 1173 44 31 83 55 87 54 4 -1 196 -329 427 -729z
m-5055 -764 c21 -8 21 -50 0 -58 -9 -4 -23 -1 -30 5 -17 14 -18 46 -1 52 6 3
13 6 14 6 1 1 8 -2 17 -5z m5560 0 c20 -8 21 -38 2 -53 -7 -6 -21 -9 -30 -5
-19 7 -22 50 -3 57 6 3 13 6 14 6 1 1 8 -2 17 -5z m-3797 -70 c11 -28 -18
-252 -47 -374 -78 -318 -239 -608 -464 -835 -233 -234 -521 -398 -836 -475
-178 -43 -286 -53 -493 -47 -198 6 -303 23 -476 79 -112 35 -295 114 -311 133
-8 9 93 191 401 726 227 393 419 722 427 732 8 9 26 17 39 17 15 0 35 12 51
30 l26 30 839 0 c752 0 838 -2 844 -16z m5555 -74 c-8 -204 -76 -464 -176
-666 -79 -162 -182 -308 -309 -441 -223 -232 -453 -377 -748 -471 -173 -56
-278 -73 -476 -79 -210 -6 -320 4 -498 49 -158 40 -401 136 -420 167 -3 6 184
339 416 741 393 681 423 730 448 730 17 0 38 11 56 30 l29 30 840 -2 841 -3
-3 -85z m-9088 -416 c10 -31 16 -57 14 -58 -40 -22 -123 -85 -156 -118 l-42
-44 16 -41 c12 -30 24 -43 48 -51 l31 -10 -42 -1 c-24 -1 -46 -2 -50 -3 -8 -3
-53 71 -53 87 0 6 42 53 94 104 l94 94 -18 41 c-22 47 -19 56 19 56 24 0 29
-6 45 -56z m9150 48 c2 -4 -3 -26 -13 -48 l-18 -40 93 -94 c52 -52 94 -99 94
-105 0 -16 -44 -88 -52 -87 -5 1 -27 2 -50 3 l-43 1 31 10 c24 8 36 21 48 51
l16 41 -42 44 c-33 33 -116 96 -156 118 -2 1 4 27 14 58 16 50 21 56 45 56 15
0 30 -4 33 -8z m-9011 -382 c32 -60 32 -57 7 -70 -15 -8 -18 -8 -14 3 2 7 -7
33 -20 58 -29 50 -31 59 -13 59 6 0 24 -23 40 -50z m8847 43 c0 -5 -12 -28
-26 -52 -13 -25 -22 -51 -20 -58 4 -11 1 -11 -14 -3 -11 6 -20 13 -20 15 0 16
57 105 68 105 6 0 12 -3 12 -7z m-8959 -254 c-27 -44 -26 -48 7 -87 l27 -32
66 14 c37 8 91 25 120 37 l52 23 38 -44 c36 -42 37 -45 21 -63 -16 -18 -17
-18 -32 4 -40 61 -36 60 -135 35 -49 -13 -109 -26 -132 -30 -42 -6 -42 -6 -68
39 l-27 45 37 50 c41 56 58 62 26 9z m9044 -9 l37 -50 -27 -45 c-26 -45 -26
-45 -68 -39 -23 4 -82 17 -132 30 -99 25 -95 26 -135 -35 -15 -22 -16 -22 -32
-4 -16 18 -15 21 21 63 l38 44 52 -23 c29 -12 83 -29 120 -37 l66 -14 28 32
c32 38 33 54 7 88 -19 24 -25 40 -16 40 2 0 21 -23 41 -50z m-8807 -321 c-10
-29 -8 -34 23 -65 l34 -33 59 24 c32 13 83 40 113 60 l54 36 27 -20 c15 -10
35 -28 44 -38 17 -19 17 -21 -2 -61 -11 -22 -20 -46 -20 -52 0 -20 -18 -10
-47 27 l-30 36 -98 -31 c-54 -18 -115 -35 -136 -38 -35 -6 -39 -4 -64 35 l-28
41 37 55 c20 30 38 55 41 55 2 0 -1 -14 -7 -31z m8578 -24 l37 -55 -28 -41
c-25 -39 -29 -41 -64 -35 -21 3 -82 20 -136 38 l-98 31 -30 -36 c-29 -37 -47
-47 -47 -27 0 6 -9 30 -20 52 -19 40 -19 42 -2 61 9 10 29 28 44 38 l27 20 54
-36 c30 -20 81 -47 113 -60 l59 -24 34 33 c31 31 33 36 23 65 -6 17 -9 31 -7
31 3 0 21 -25 41 -55z"/>
</g>
</svg>
