<?xml version="1.0" standalone="no"?>
<!DOCTYPE svg PUBLIC "-//W3C//DTD SVG 20010904//EN" "http://www.w3.org/TR/2001/REC-SVG-20010904/DTD/svg10.dtd">
<svg version="1.0" xmlns="http://www.w3.org/2000/svg" width="1280.000000pt" height="853.000000pt"
   viewBox="0 0 1280.000000 853.000000" preserveAspectRatio="xMidYMid meet">
   <defs>
      <linearGradient id="grad" x1="0%" y1="0%" x2="0%" y2="100%">
         <stop offset="30%" style="stop-color:#463f3a;stop-opacity:0" />
         <stop offset="100%" style="stop-color:#463f3a;stop-opacity:1" />
      </linearGradient>
   </defs>
   <metadata>
      Created by potrace 1.15, written by Peter Selinger 2001-2017
   </metadata>
   <g transform="translate(0.000000,853.000000) scale(0.100000,-0.100000)" stroke="none">
      <path fill="#463f3a" opacity="1" d="M2205 7391 c-96 -26 -125 -38 -125 -53 0 -7 9 -62 20 -122 22 -122
26 -252 8 -291 -6 -14 -34 -39 -62 -56 -41 -26 -57 -30 -93 -26 -56 6 -130 52
-250 154 l-96 82 -48 -42 c-26 -23 -66 -63 -89 -90 l-42 -47 51 -56 c117 -127
191 -244 191 -299 0 -39 -49 -124 -82 -141 -40 -21 -178 -18 -304 7 -58 11
-112 18 -118 16 -12 -5 -45 -106 -64 -194 l-10 -41 105 -37 c140 -48 233 -96
271 -140 28 -31 32 -43 32 -95 0 -51 -4 -64 -30 -93 -38 -44 -119 -86 -250
-131 -58 -20 -110 -38 -116 -40 -9 -3 -8 -22 3 -68 16 -74 43 -160 52 -170 3
-4 56 2 116 13 138 26 269 30 309 9 37 -18 84 -94 85 -135 2 -61 -57 -156
-182 -298 l-60 -68 84 -85 c46 -46 88 -84 94 -84 6 0 39 25 75 56 130 114 205
162 272 174 31 6 46 2 90 -25 29 -17 59 -42 65 -56 19 -36 15 -176 -7 -291
-11 -57 -20 -111 -20 -120 0 -13 21 -24 78 -41 42 -14 95 -28 118 -31 l41 -7
33 93 c51 144 94 231 134 271 35 35 40 37 104 37 65 0 69 -1 105 -37 41 -43
92 -147 133 -276 l29 -88 35 6 c53 9 184 45 198 54 10 6 8 32 -9 127 -25 138
-30 256 -11 299 15 37 97 85 143 85 64 -1 134 -45 290 -182 l67 -58 74 69 c40
38 80 80 87 94 13 25 11 29 -48 94 -86 95 -152 193 -166 250 -12 46 -12 50 18
105 21 39 41 61 62 70 44 19 174 14 304 -11 92 -18 116 -20 122 -9 12 19 48
158 51 196 l3 34 -115 42 c-146 54 -196 79 -242 124 -36 34 -38 39 -38 99 0
41 6 72 16 88 31 48 115 91 307 160 l78 28 -6 41 c-12 71 -55 196 -68 196 -7
0 -61 -9 -121 -20 -123 -23 -259 -26 -295 -7 -39 19 -91 114 -84 151 10 55 62
139 148 241 47 55 85 105 85 111 0 6 -38 48 -85 93 l-85 83 -67 -59 c-139
-123 -236 -183 -293 -183 -44 0 -127 49 -142 85 -19 44 -14 183 10 310 12 60
18 113 14 117 -9 9 -191 58 -217 58 -17 0 -26 -15 -49 -87 -41 -128 -99 -245
-141 -282 -32 -28 -42 -31 -99 -31 -59 0 -65 2 -100 37 -44 44 -86 129 -131
262 -37 111 -37 112 -150 82z m554 -771 c421 -101 657 -553 500 -960 -112
-291 -408 -479 -720 -457 -315 23 -573 240 -650 548 -18 68 -20 103 -17 198 9
197 70 341 203 476 180 183 433 255 684 195z" />
      <path fill="#463f3a" opacity="1" d="M2431 6404 c-217 -74 -351 -258 -351 -485 0 -291 257 -530 545 -506
205 18 368 142 445 342 31 80 34 233 6 315 -93 276 -380 425 -645 334z m277
-250 c95 -47 148 -143 140 -252 -5 -69 -28 -118 -75 -165 -47 -47 -96 -70
-163 -75 -112 -8 -203 42 -253 140 -50 97 -33 223 41 302 72 77 211 99 310 50z" />
      <path fill="#463f3a" opacity="1" d="M9290 4196 c-205 -57 -344 -240 -344 -451 0 -407 483 -617 783 -339
124 114 177 290 136 449 -45 169 -182 307 -346 344 -59 14 -174 12 -229 -3z
m223 -233 c46 -19 113 -93 127 -142 14 -51 12 -126 -4 -165 -37 -89 -129 -149
-226 -149 -235 1 -327 300 -135 435 67 47 151 54 238 21z" />
      <path fill="#463f3a" opacity="1" d="M10542 2948 l-74 -21 6 -31 c36 -177 32 -235 -20 -265 -19 -12 -42
-21 -50 -21 -26 0 -77 31 -153 93 l-75 60 -53 -57 -53 -57 55 -64 c55 -65 95
-132 95 -159 0 -8 -9 -31 -21 -50 -16 -27 -30 -37 -57 -42 -33 -6 -162 7 -218
22 -19 5 -23 -1 -39 -63 -10 -37 -18 -72 -19 -77 -1 -4 28 -18 64 -31 80 -27
128 -51 158 -78 30 -28 31 -98 1 -128 -22 -22 -114 -67 -181 -88 -44 -14 -47
-28 -22 -110 l15 -53 37 6 c78 12 191 18 215 12 14 -3 35 -22 48 -42 19 -31
20 -40 11 -72 -6 -21 -40 -73 -76 -117 l-65 -80 54 -54 54 -54 68 55 c113 92
151 104 210 68 44 -26 51 -70 30 -190 -9 -52 -13 -98 -9 -102 12 -11 132 -39
142 -33 6 3 10 11 10 16 0 25 64 169 86 192 20 22 34 27 74 27 46 0 52 -3 78
-38 15 -21 40 -75 56 -121 l28 -81 37 6 c20 4 52 12 71 19 39 14 38 5 25 156
-10 106 -4 129 36 152 60 33 100 20 205 -69 52 -44 68 -53 82 -45 20 11 92 87
92 97 0 3 -18 26 -40 51 -61 70 -100 133 -100 164 0 39 31 88 59 96 13 3 62 2
110 -2 157 -13 143 -17 162 45 28 86 28 84 -63 116 -45 16 -99 41 -120 56 -35
26 -38 32 -38 76 0 26 4 52 8 57 15 22 70 53 142 80 41 16 79 32 83 35 8 7
-19 129 -31 142 -4 4 -50 0 -102 -9 -120 -21 -164 -14 -190 30 -36 59 -24 97
68 210 l55 68 -53 54 -53 54 -66 -55 c-119 -99 -174 -112 -228 -58 -25 25 -25
29 -19 117 3 51 9 109 12 129 l6 37 -53 15 c-87 26 -95 24 -115 -36 -25 -79
-71 -166 -93 -178 -11 -5 -37 -10 -59 -10 -57 0 -88 40 -142 188 -12 34 -23
62 -24 61 0 0 -34 -10 -74 -21z m395 -489 c95 -32 198 -120 241 -206 79 -154
65 -346 -36 -478 -156 -205 -462 -235 -649 -62 -121 111 -171 262 -139 415 19
91 57 163 121 228 117 119 299 159 462 103z" />
      <path fill="#463f3a" opacity="1" d="M10714 2351 c-48 -12 -133 -62 -160 -94 -14 -17 -37 -53 -52 -81 -35
-69 -38 -187 -5 -258 32 -70 94 -131 164 -163 55 -24 70 -27 143 -23 173 10
284 121 294 294 4 73 1 88 -23 143 -32 70 -94 133 -163 163 -50 22 -149 32
-198 19z m156 -173 c48 -33 72 -70 77 -119 10 -98 -78 -186 -176 -176 -50 5
-86 29 -119 78 -30 44 -28 129 6 176 45 63 149 83 212 41z" />
   </g>
</svg>